<svg width="50" height="50" viewBox="0 0 50 50" fill="none" xmlns="http://www.w3.org/2000/svg">
<mask id="mask0_2080_287" style="mask-type:luminance" maskUnits="userSpaceOnUse" x="0" y="0" width="50" height="50">
<path d="M50 0H0V50H50V0Z" fill="white"/>
</mask>
<g mask="url(#mask0_2080_287)">
<path d="M29.1667 47.3958H20.8333C9.52083 47.3958 4.6875 42.5625 4.6875 31.25V18.75C4.6875 7.43746 9.52083 2.60413 20.8333 2.60413H29.1667C40.4792 2.60413 45.3125 7.43746 45.3125 18.75V31.25C45.3125 42.5625 40.4792 47.3958 29.1667 47.3958ZM20.8333 5.72913C11.2292 5.72913 7.8125 9.14579 7.8125 18.75V31.25C7.8125 40.8541 11.2292 44.2708 20.8333 44.2708H29.1667C38.7708 44.2708 42.1875 40.8541 42.1875 31.25V18.75C42.1875 9.14579 38.7708 5.72913 29.1667 5.72913H20.8333Z" fill="#0D3251"/>
<path d="M31.25 22.5626H18.75C16.1667 22.5626 14.0625 20.4584 14.0625 17.8751V15.7917C14.0625 13.2084 16.1667 11.1042 18.75 11.1042H31.25C33.8333 11.1042 35.9375 13.2084 35.9375 15.7917V17.8751C35.9375 20.4584 33.8333 22.5626 31.25 22.5626ZM18.75 14.2292C17.8958 14.2292 17.1875 14.9376 17.1875 15.7917V17.8751C17.1875 18.7292 17.8958 19.4376 18.75 19.4376H31.25C32.1042 19.4376 32.8125 18.7292 32.8125 17.8751V15.7917C32.8125 14.9376 32.1042 14.2292 31.25 14.2292H18.75Z" fill="#0D3251"/>
<path d="M16.979 31.085C16.7082 31.085 16.4373 31.0225 16.1873 30.9183C15.9373 30.8142 15.7082 30.6683 15.5207 30.4808C15.1248 30.085 14.9165 29.5642 14.9165 29.0017C14.9165 28.7308 14.9582 28.46 15.0623 28.21C15.1665 27.9392 15.3123 27.7308 15.5207 27.5225C15.604 27.4392 15.7082 27.335 15.8332 27.2725C15.9373 27.1892 16.0623 27.1267 16.1873 27.085C16.3123 27.0225 16.4582 26.9808 16.5832 26.96C17.2498 26.8142 17.979 27.0433 18.4582 27.5225C18.6457 27.71 18.8123 27.9392 18.9165 28.21C19.0207 28.46 19.0832 28.7308 19.0832 29.0017C19.0832 29.5642 18.854 30.085 18.4582 30.4808C18.0623 30.8767 17.5415 31.085 16.979 31.085Z" fill="#0D3251"/>
<path d="M25.3331 31.083C24.7706 31.083 24.2498 30.8747 23.8539 30.4789C23.4581 30.083 23.2498 29.5622 23.2498 28.9997C23.2498 28.7289 23.2914 28.458 23.3956 28.208C23.4998 27.9372 23.6456 27.7289 23.8539 27.5205C23.9373 27.4372 24.0414 27.333 24.1664 27.2705C24.2706 27.1872 24.3956 27.1247 24.5206 27.083C24.6456 27.0205 24.7914 26.9789 24.9164 26.958C25.3123 26.8747 25.7289 26.9164 26.1248 27.083C26.3748 27.1872 26.6039 27.333 26.7914 27.5205C26.9789 27.7289 27.1456 27.9372 27.2498 28.208C27.3539 28.458 27.4164 28.7289 27.4164 28.9997C27.4164 29.5622 27.1873 30.083 26.7914 30.4789C26.3956 30.8747 25.8748 31.083 25.3331 31.083Z" fill="#0D3251"/>
<path d="M33.6455 31.0814C33.3747 31.0814 33.1038 31.0189 32.8538 30.9148C32.6038 30.8106 32.3747 30.6648 32.1872 30.4773C31.9788 30.2689 31.833 30.0398 31.7288 29.7898C31.6247 29.5398 31.583 29.2689 31.583 28.9981C31.583 28.7273 31.6247 28.4564 31.7288 28.2064C31.833 27.9356 31.9788 27.7273 32.1872 27.5189C32.958 26.7481 34.3538 26.7481 35.1247 27.5189C35.5205 27.9148 35.7497 28.4564 35.7497 28.9981C35.7497 29.5606 35.5205 30.0814 35.1247 30.4773C34.7497 30.8523 34.2288 31.0814 33.6455 31.0814Z" fill="#0D3251"/>
<path d="M16.9997 39.4185C16.4372 39.4185 15.9163 39.2102 15.5205 38.8143C15.1247 38.4185 14.8955 37.8977 14.8955 37.3352C14.8955 36.7935 15.1247 36.2518 15.5205 35.856C15.6038 35.7727 15.7288 35.6685 15.833 35.606C15.9372 35.5227 16.0622 35.4602 16.1872 35.4185C16.3122 35.356 16.458 35.3143 16.583 35.2935C17.2705 35.1685 17.9788 35.3768 18.458 35.856C18.5622 35.9602 18.6455 36.0643 18.7288 36.1685C18.7913 36.2935 18.8538 36.4185 18.9163 36.5435C18.958 36.6685 18.9997 36.7935 19.0413 36.9185C19.0622 37.0643 19.083 37.1893 19.083 37.3352C19.083 37.8977 18.8538 38.4185 18.458 38.8143C18.0622 39.2102 17.5413 39.4185 16.9997 39.4185Z" fill="#0D3251"/>
<path d="M25.3332 39.4185C24.7707 39.4185 24.2498 39.2102 23.854 38.8143C23.4582 38.4185 23.229 37.8977 23.229 37.3352C23.229 36.7935 23.4582 36.2518 23.854 35.856C24.3332 35.3768 25.0623 35.1685 25.729 35.2935C25.854 35.3143 25.9998 35.356 26.1248 35.4185C26.2498 35.4602 26.3748 35.5227 26.479 35.606C26.5832 35.6685 26.6873 35.7727 26.7915 35.856C27.1873 36.2518 27.3957 36.7935 27.3957 37.3352C27.3957 37.8977 27.1873 38.4185 26.7915 38.8143C26.3957 39.2102 25.8748 39.4185 25.3332 39.4185Z" fill="#0D3251"/>
<path d="M33.6455 39.4171C33.1038 39.4171 32.583 39.2087 32.1872 38.8129C31.7913 38.4171 31.583 37.8962 31.583 37.3337C31.583 36.7921 31.7913 36.2504 32.1872 35.8546C32.3747 35.6671 32.6038 35.5212 32.8538 35.4171C33.6247 35.1046 34.5622 35.2712 35.1247 35.8546C35.5205 36.2504 35.7288 36.7921 35.7288 37.3337C35.7288 37.8962 35.5205 38.4171 35.1247 38.8129C34.9372 39.0004 34.708 39.1462 34.458 39.2504C34.208 39.3546 33.9372 39.4171 33.6455 39.4171Z" fill="#0D3251"/>
</g>
</svg>
