<svg width="45" height="45" viewBox="0 0 45 45" fill="none" xmlns="http://www.w3.org/2000/svg">
<path d="M36.6667 23.9583H31.0417C25.5001 23.9583 22.9167 21.375 22.9167 15.8333V8.125C22.9167 2.58333 25.5001 0 31.0417 0H36.6667C42.2084 0 44.7917 2.58333 44.7917 8.125V15.8333C44.7917 21.375 42.2084 23.9583 36.6667 23.9583ZM31.0417 3.125C27.2084 3.125 26.0417 4.29167 26.0417 8.125V15.8333C26.0417 19.6667 27.2084 20.8333 31.0417 20.8333H36.6667C40.5001 20.8333 41.6667 19.6667 41.6667 15.8333V8.125C41.6667 4.29167 40.5001 3.125 36.6667 3.125H31.0417Z" fill="#1F4E6D"/>
<path d="M13.75 44.7917H8.125C2.58333 44.7917 0 42.2084 0 36.6667V28.9584C0 23.4167 2.58333 20.8334 8.125 20.8334H13.75C19.2917 20.8334 21.875 23.4167 21.875 28.9584V36.6667C21.875 42.2084 19.2917 44.7917 13.75 44.7917ZM8.125 23.9584C4.29167 23.9584 3.125 25.125 3.125 28.9584V36.6667C3.125 40.5 4.29167 41.6667 8.125 41.6667H13.75C17.5833 41.6667 18.75 40.5 18.75 36.6667V28.9584C18.75 25.125 17.5833 23.9584 13.75 23.9584H8.125Z" fill="#1F4E6D"/>
<path d="M28.6456 44.7917C28.0831 44.7917 27.5622 44.4792 27.2914 44C27.0206 43.5209 27.0206 42.9167 27.3122 42.4375L29.4997 38.7917C29.9372 38.0417 30.8956 37.8125 31.6456 38.25C32.3956 38.6875 32.6247 39.6459 32.1872 40.3959L31.6247 41.3334C37.3747 39.9792 41.6872 34.8125 41.6872 28.6459C41.6872 27.7917 42.3956 27.0834 43.2497 27.0834C44.1039 27.0834 44.8122 27.7917 44.8122 28.6459C44.7914 37.5417 37.5414 44.7917 28.6456 44.7917Z" fill="#1F4E6D"/>
<path d="M1.5625 17.7083C0.708333 17.7083 0 17 0 16.1458C0 7.25 7.25 0 16.1458 0C16.7083 0 17.2292 0.3125 17.5 0.791667C17.7708 1.27083 17.7708 1.875 17.4792 2.35417L15.2917 6.02083C14.8542 6.75 13.8958 7 13.1458 6.54167C12.4167 6.10417 12.1667 5.14583 12.625 4.39583L13.1875 3.45833C7.41667 4.8125 3.125 9.97917 3.125 16.1458C3.125 17 2.41667 17.7083 1.5625 17.7083Z" fill="#1F4E6D"/>
</svg>
