<svg width="50" height="50" viewBox="0 0 50 50" fill="none" xmlns="http://www.w3.org/2000/svg">
<g clip-path="url(#clip0_2106_1333)">
<mask id="mask0_2106_1333" style="mask-type:luminance" maskUnits="userSpaceOnUse" x="0" y="0" width="50" height="50">
<path d="M50 0H0V50H50V0Z" fill="white"/>
</mask>
<g mask="url(#mask0_2106_1333)">
<path d="M30.771 41.1464H19.2918C18.3752 41.1464 17.2085 41.0422 16.4377 40.2506C15.6877 39.4797 15.7085 38.5214 15.7293 37.8756V36.0214C10.4793 32.5214 7.021 26.4381 7.021 20.6464C7.021 15.1672 9.47933 10.0422 13.7502 6.60473C18.021 3.16723 23.6251 1.87557 29.1043 3.0839C34.3126 4.22973 38.8126 7.7089 41.146 12.3964C45.6668 21.5006 41.3126 31.3548 34.3543 36.0423V37.6048C34.3751 38.2089 34.396 39.3131 33.5418 40.1881C32.896 40.8131 31.9793 41.1464 30.771 41.1464ZM18.8335 38.0006C18.9377 38.0006 19.0835 38.0214 19.271 38.0214H30.771C30.9793 38.0214 31.1251 38.0006 31.2085 37.9798C31.2085 37.9173 31.2085 37.8339 31.2085 37.7714V35.1464C31.2085 34.6048 31.5001 34.0839 31.9585 33.8131C38.1251 30.0839 42.2085 21.5631 38.3126 13.7506C36.396 9.8964 32.6876 7.04223 28.396 6.10473C23.8543 5.10473 19.2085 6.16723 15.6668 9.0214C12.1252 11.8756 10.1043 16.1047 10.1043 20.6464C10.1043 26.4381 14.1043 31.4381 18.0627 33.8339C18.5418 34.1256 18.8127 34.6256 18.8127 35.1673V37.9798C18.8335 37.9798 18.8335 37.9797 18.8335 38.0006Z" fill="#F8F8F8"/>
<path d="M32.2915 47.3947C32.1457 47.3947 31.9999 47.3739 31.854 47.3322C27.354 46.0406 22.6249 46.0406 18.1249 47.3322C17.2915 47.5614 16.4374 47.0822 16.1874 46.2489C15.9374 45.4156 16.4374 44.5614 17.2707 44.3114C22.3124 42.8739 27.6665 42.8739 32.7082 44.3114C33.5415 44.5406 34.0207 45.4156 33.7915 46.2489C33.604 46.9572 32.979 47.3947 32.2915 47.3947Z" fill="#F8F8F8"/>
</g>
</g>
<defs>
<clipPath id="clip0_2106_1333">
<rect width="50" height="50" fill="white"/>
</clipPath>
</defs>
</svg>
