<svg width="50" height="50" viewBox="0 0 50 50" fill="none" xmlns="http://www.w3.org/2000/svg">
<path d="M39.5833 31.25C44.1856 31.25 47.9166 34.981 47.9166 39.5833V43.75H43.7499M33.3333 22.6541C36.9275 21.729 39.5833 18.4663 39.5833 14.5833C39.5833 10.7003 36.9275 7.4376 33.3333 6.51251M27.0833 14.5833C27.0833 19.1857 23.3523 22.9167 18.7499 22.9167C14.1475 22.9167 10.4166 19.1857 10.4166 14.5833C10.4166 9.98096 14.1475 6.25 18.7499 6.25C23.3523 6.25 27.0833 9.98096 27.0833 14.5833ZM10.4166 31.25H27.0833C31.6856 31.25 35.4166 34.981 35.4166 39.5833V43.75H2.08325V39.5833C2.08325 34.981 5.81421 31.25 10.4166 31.25Z" stroke="#F8F8F8" stroke-width="2" stroke-linecap="round" stroke-linejoin="round"/>
</svg>
